<svg width="25" height="25" viewBox="0 0 20 20" fill="none" xmlns="http://www.w3.org/2000/svg">
<path fill-rule="evenodd" clip-rule="evenodd" d="M9.99896 0C4.47704 0 0 4.59029 0 10.2536C0 14.7833 2.86499 18.6261 6.83894 19.9824C7.33912 20.0763 7.52138 19.7597 7.52138 19.4875C7.52138 19.2447 7.51306 18.5997 7.50806 17.7442C4.7263 18.3637 4.13957 16.3696 4.13957 16.3696C3.68475 15.1856 3.02894 14.8703 3.02894 14.8703C2.12097 14.2338 3.0976 14.2466 3.0976 14.2466C4.10128 14.3195 4.62934 15.3034 4.62934 15.3034C5.5215 16.87 6.97002 16.4174 7.53969 16.1554C7.63082 15.4928 7.8884 15.041 8.17469 14.7846C5.95427 14.526 3.61942 13.6459 3.61942 9.7173C3.61942 8.59821 4.00932 7.68262 4.6489 6.96586C4.54612 6.70646 4.20282 5.66416 4.74669 4.25239C4.74669 4.25239 5.58642 3.97677 7.49683 5.30364C8.29453 5.07624 9.15007 4.96233 10.0002 4.95849C10.8495 4.96233 11.7051 5.07624 12.504 5.30364C14.4132 3.97677 15.2512 4.25239 15.2512 4.25239C15.7968 5.66416 15.4535 6.70646 15.3507 6.96586C15.9915 7.68262 16.3789 8.59821 16.3789 9.7173C16.3789 13.6561 14.0403 14.5226 11.8124 14.7765C12.1719 15.093 12.4915 15.7185 12.4915 16.6755C12.4915 18.0459 12.4795 19.1517 12.4795 19.4875C12.4795 19.7623 12.6592 20.0814 13.1669 19.9811C17.1375 18.6223 20 14.782 20 10.2536C20 4.59029 15.5225 0 9.99896 0" fill="#D0D0D0"/>
</svg>
