<svg width="25" height="25" viewBox="0 0 20 20" fill="none" xmlns="http://www.w3.org/2000/svg">
<path d="M0 1.33333V18.6667C0 19.4 0.6 20 1.33333 20H18.6667C19.4 20 20 19.4 20 18.6667V1.33333C20 0.6 19.4 0 18.6667 0H1.33333C0.6 0 0 0.6 0 1.33333ZM5.7 16.6667H3.33333V7.46667H5.7V16.6667ZM4.53333 5.63333C3.86667 5.63333 3.33333 5.13333 3.33333 4.5C3.33333 3.86667 3.86667 3.36667 4.53333 3.36667C5.2 3.36667 5.73333 3.86667 5.73333 4.5C5.7 5.13333 5.16667 5.63333 4.53333 5.63333ZM16.6667 16.6667H14.3V12.0667C14.3 11.1 14.2667 10.4667 14.1667 10.1667C14.0667 9.86667 13.9 9.66667 13.7 9.5C13.4667 9.33333 13.2 9.26667 12.9 9.26667C12.5 9.26667 12.1333 9.36667 11.8333 9.6C11.5 9.83333 11.3 10.1333 11.1667 10.5C11.0333 10.8667 11 11.5667 11 12.5667V16.6667H8.13333V7.46667H10.5V8.83333C11.3 7.8 12.3333 7.26667 13.5667 7.26667C14.1 7.26667 14.6 7.36667 15.0667 7.56667C15.5 7.76667 15.8667 8 16.1 8.3C16.3333 8.6 16.5 8.93333 16.5667 9.33333C16.6667 9.7 16.7 10.2667 16.7 10.9667V16.6667H16.6667Z" fill="#D0D0D0"/>
</svg>
