<svg width="11" height="95" viewBox="0 0 13 104" fill="none" xmlns="http://www.w3.org/2000/svg">
<path d="M3.82812 0.773437H3.69531C2.76302 0.773437 2.03906 1.15625 1.52344 1.92187C1.00781 2.69271 0.75 3.80208 0.75 5.25C0.75 6.71875 1.01042 7.83333 1.53125 8.59375C2.05208 9.35937 2.77083 9.74219 3.6875 9.74219C4.38542 9.74219 4.95833 9.48958 5.40625 8.98437C5.85937 8.47917 6.16667 7.6224 6.32812 6.41406C6.50521 5.11719 6.66927 4.35417 6.82031 4.125C6.97656 3.90104 7.18229 3.78906 7.4375 3.78906C7.67187 3.78906 7.85937 3.89062 8 4.09375C8.14062 4.29687 8.21094 4.65885 8.21094 5.17969C8.21094 5.71094 8.10937 6.07812 7.90625 6.28125C7.70833 6.48437 7.4375 6.58594 7.09375 6.58594H6.98437L6.98437 9.44531H7.125C7.97917 9.44531 8.67969 9.0625 9.22656 8.29687C9.77865 7.53646 10.0547 6.5 10.0547 5.1875C10.0547 3.86979 9.80208 2.83073 9.29687 2.07031C8.79167 1.3151 8.10937 0.9375 7.25 0.9375C6.58333 0.9375 6.00781 1.18229 5.52344 1.67187C5.04427 2.16146 4.71094 3.0625 4.52344 4.375C4.36719 5.46875 4.22656 6.15625 4.10156 6.4375C3.98177 6.71875 3.76823 6.85937 3.46094 6.85937C3.15365 6.85937 2.93229 6.73437 2.79687 6.48437C2.66146 6.23958 2.59375 5.83594 2.59375 5.27344C2.59375 4.70573 2.67708 4.29167 2.84375 4.03125C3.01562 3.77083 3.28125 3.63802 3.64062 3.63281H3.82812L3.82812 0.773437ZM5.27344 11.0547C3.88802 11.0547 2.78906 11.5156 1.97656 12.4375C1.16927 13.3594 0.765625 14.5833 0.765625 16.1094C0.765625 17.5833 1.09115 18.7161 1.74219 19.5078C2.39844 20.2995 3.16406 20.6953 4.03906 20.6953H4.14062V17.75H4.05469C3.71094 17.75 3.42448 17.6094 3.19531 17.3281C2.96615 17.0521 2.85156 16.638 2.85156 16.0859C2.85156 15.4401 3.0625 14.9479 3.48437 14.6094C3.91146 14.276 4.46094 14.1094 5.13281 14.1094H5.64844C6.33073 14.1094 6.88281 14.276 7.30469 14.6094C7.72656 14.9479 7.9375 15.4401 7.9375 16.0859C7.9375 16.6432 7.82292 17.0599 7.59375 17.3359C7.36979 17.612 7.08854 17.7526 6.75 17.7578H6.64062L6.64062 20.7031L6.80469 20.6875C7.67448 20.6406 8.42708 20.2318 9.0625 19.4609C9.70312 18.6953 10.0234 17.5781 10.0234 16.1094C10.0234 14.5833 9.61719 13.3594 8.80469 12.4375C7.9974 11.5156 6.90365 11.0547 5.52344 11.0547H5.27344ZM1 22.375V25.3672H6.41406C6.74219 25.5078 7.01042 25.7318 7.21875 26.0391C7.43229 26.3516 7.53906 26.7031 7.53906 27.0938C7.53906 27.224 7.53646 27.3568 7.53125 27.4922C7.53125 27.6328 7.51302 27.7786 7.47656 27.9297H9.90625C9.94271 27.8307 9.96875 27.7057 9.98437 27.5547C10.0052 27.4089 10.0156 27.2786 10.0156 27.1641C10.0156 26.7682 9.88802 26.3958 9.63281 26.0469C9.3776 25.7031 9.07031 25.4661 8.71094 25.3359V25.2578L9.78906 25.2344L9.78906 22.375H1ZM5.27344 28.8516C3.89323 28.8516 2.79687 29.3229 1.98437 30.2656C1.17187 31.2135 0.765625 32.4479 0.765625 33.9687C0.765625 35.4844 1.17187 36.7135 1.98437 37.6562C2.79687 38.599 3.89323 39.0703 5.27344 39.0703H5.52344C6.89844 39.0703 7.99219 38.599 8.80469 37.6562C9.61719 36.7135 10.0234 35.4818 10.0234 33.9609C10.0234 32.4453 9.61719 31.2135 8.80469 30.2656C7.99219 29.3229 6.89844 28.8516 5.52344 28.8516H5.27344ZM5.64844 31.9062C6.32031 31.9062 6.86458 32.0833 7.28125 32.4375C7.69792 32.7917 7.90625 33.3021 7.90625 33.9688C7.90625 34.625 7.69792 35.1276 7.28125 35.4766C6.86458 35.8307 6.32292 36.0078 5.65625 36.0078H5.14062C4.46875 36.0078 3.92448 35.8307 3.50781 35.4766C3.09115 35.1276 2.88281 34.625 2.88281 33.9687C2.88281 33.3021 3.09115 32.7917 3.50781 32.4375C3.92448 32.0833 4.46615 31.9062 5.13281 31.9062H5.64844ZM1 41.0312L1 44.0156L13 44.0156V41.0312L1 41.0312ZM1 46.5L1 49.4844L13 49.4844L13 46.5L1 46.5ZM5.27344 55.4141C3.96094 55.4141 2.89323 55.7891 2.07031 56.5391C1.2526 57.2943 0.84375 58.3307 0.84375 59.6484C0.84375 60.2526 0.953125 60.7917 1.17187 61.2656C1.39583 61.7396 1.67708 62.0703 2.01562 62.2578V62.2812L1 62.3359V65.2188H13V62.2344H8.9375C9.23958 62 9.48177 61.6589 9.66406 61.2109C9.85156 60.7682 9.94531 60.2448 9.94531 59.6406C9.94531 58.3854 9.53385 57.3672 8.71094 56.5859C7.88802 55.8047 6.82552 55.4141 5.52344 55.4141H5.27344ZM5.14844 58.4688H5.63281C6.28906 58.4688 6.82031 58.6328 7.22656 58.9609C7.63802 59.2943 7.84375 59.7812 7.84375 60.4219C7.84375 60.8594 7.73958 61.2318 7.53125 61.5391C7.32812 61.8516 7.06771 62.0807 6.75 62.2266H4.03906C3.72656 62.0755 3.46615 61.8438 3.25781 61.5312C3.05469 61.2188 2.95312 60.8464 2.95312 60.4141C2.95312 59.7734 3.15365 59.2891 3.55469 58.9609C3.96094 58.6328 4.49219 58.4687 5.14844 58.4688ZM5.27344 67.1328C3.89323 67.1328 2.79687 67.6042 1.98437 68.5469C1.17187 69.4948 0.765625 70.7292 0.765625 72.25C0.765625 73.7656 1.17187 74.9948 1.98437 75.9375C2.79687 76.8802 3.89323 77.3516 5.27344 77.3516H5.52344C6.89844 77.3516 7.99219 76.8802 8.80469 75.9375C9.61719 74.9948 10.0234 73.763 10.0234 72.2422C10.0234 70.7266 9.61719 69.4948 8.80469 68.5469C7.99219 67.6042 6.89844 67.1328 5.52344 67.1328H5.27344ZM5.64844 70.1875C6.32031 70.1875 6.86458 70.3646 7.28125 70.7188C7.69792 71.0729 7.90625 71.5833 7.90625 72.25C7.90625 72.9062 7.69792 73.4089 7.28125 73.7578C6.86458 74.112 6.32292 74.2891 5.65625 74.2891H5.14062C4.46875 74.2891 3.92448 74.112 3.50781 73.7578C3.09115 73.4089 2.88281 72.9062 2.88281 72.25C2.88281 71.5833 3.09115 71.0729 3.50781 70.7188C3.92448 70.3646 4.46615 70.1875 5.13281 70.1875H5.64844ZM9.78906 78.1562L1 80.8672L1 83.9922L5.64844 85.3672C5.84115 85.4141 6.03646 85.4635 6.23437 85.5156C6.43229 85.5677 6.6276 85.6146 6.82031 85.6562V85.7031C6.6276 85.7448 6.43229 85.7891 6.23437 85.8359C6.03646 85.888 5.84375 85.9427 5.65625 86L1 87.4141L1 90.4688L9.78906 93.1797L9.78906 90.6172L5.27344 89.4453C5.07031 89.388 4.82031 89.3229 4.52344 89.25C4.22656 89.1771 3.97656 89.1302 3.77344 89.1094V89.0625C3.97656 89.0365 4.22396 88.9818 4.51562 88.8984C4.8125 88.8203 5.0651 88.75 5.27344 88.6875L9.78906 87.3125V84.4922L5.24219 83.1328C5.03385 83.0703 4.79427 83.0104 4.52344 82.9531C4.25781 82.901 4.02604 82.8646 3.82812 82.8438V82.7891C4.02604 82.7734 4.26302 82.7318 4.53906 82.6641C4.82031 82.5964 5.0625 82.5339 5.26562 82.4766L9.78906 81.2578L9.78906 78.1562ZM1 94.4688L1 97.4531H6.65625C6.97917 97.6094 7.25521 97.8516 7.48437 98.1797C7.71354 98.513 7.82812 98.8958 7.82812 99.3281C7.82812 99.7865 7.70573 100.13 7.46094 100.359C7.21615 100.594 6.80729 100.711 6.23437 100.711H1V103.695H6.19531C7.59115 103.706 8.5651 103.375 9.11719 102.703C9.67448 102.031 9.95312 101.185 9.95312 100.164C9.95312 99.5755 9.84896 99.0365 9.64062 98.5469C9.4375 98.0573 9.14844 97.6823 8.77344 97.4219V97.3984L9.78906 97.3438V94.4688H1Z" fill="#D0D0D0"/>
</svg>
